<?xml version="1.0" encoding="utf-8"?>
<!-- Generator: Adobe Illustrator 22.0.1, SVG Export Plug-In . SVG Version: 6.00 Build 0)  -->
<svg version="1.1" id="Capa_1" xmlns="http://www.w3.org/2000/svg" xmlns:xlink="http://www.w3.org/1999/xlink" x="0px" y="0px"
	 viewBox="0 0 417.1 417.1" style="enable-background:new 0 0 417.1 417.1;" xml:space="preserve">
<style type="text/css">
	.st0{fill:#6EBF00;}
</style>
<g>
	<g>
		<path class="st0" d="M409.1,200.7c-4.4,0-8,3.6-8,8c-0.1,106.5-86.5,192.8-193,192.8c-106.5-0.1-192.8-86.5-192.8-193
			c0.1-106.5,86.5-192.8,193-192.8c51.4,0,100.6,20.5,136.8,57L327.3,72c-4.4,0-8,3.6-8,8s3.6,8,8,8l36.7,1.5c1,0,2-0.2,3-0.6
			l0.9-0.6c1.4-0.9,2.5-2,3.4-3.4c0-0.4,0-0.9,0-1.3c0.2-0.5,0.3-1,0.4-1.5l3.2-36.7c0.4-4.4-2.9-8.3-7.3-8.7s-8.3,2.9-8.7,7.3
			l-1.6,18.2c-80.8-82.1-212.8-83.1-294.9-2.3s-83.1,212.8-2.3,294.9s212.8,83.1,294.9,2.3c39.8-39.2,62.2-92.6,62.3-148.5
			C417.1,204.3,413.5,200.7,409.1,200.7z"/>
	</g>
</g>
<g>
	<g>
		<path class="st0" d="M200.4,256.3c-3.7-2.5-8.2-3.7-12.6-3.4h-56c1.6-2.4,3.3-4.8,5.2-7c6.7-7.4,14.1-14.2,22-20.3
			c10.7-8.7,18.3-15.1,22.9-19.2c5.3-5,9.8-10.7,13.4-17c4.4-7.2,6.6-15.5,6.6-24c0-11.2-4.3-21.9-11.9-30.1
			c-3.7-3.9-8.2-7.1-13.1-9.4c-8.7-3.6-18.1-5.4-27.5-5.3c-8-0.2-16.1,1.2-23.6,4c-6.2,2.3-11.9,5.9-16.6,10.5
			c-4.2,4.1-7.6,9-9.8,14.5c-2.1,4.9-3.2,10.1-3.3,15.4c-0.2,3.5,1.1,7,3.5,9.6c2.3,2.4,5.6,3.6,8.9,3.5c3.5,0.2,6.9-1.2,9.2-3.8
			c2.5-3.3,4.4-7,5.7-11c0.9-3,2.1-5.9,3.6-8.7c4.6-7.7,12.9-12.4,21.9-12.2c4.1,0.1,8.1,1.1,11.8,3.1c3.6,1.8,6.7,4.6,8.9,8
			c2.2,3.7,3.3,7.9,3.3,12.2c-0.1,4.4-1.1,8.8-3,12.8c-2.1,4.8-5,9.3-8.6,13.2c-4.4,4.6-9.3,8.8-14.6,12.4c-5.6,4.2-11,8.8-16,13.8
			c-7.8,7-16.5,15.5-26,25.3c-2.6,3-4.8,6.3-6.3,10c-1.6,3.2-2.6,6.6-2.9,10.2c0,3.9,1.6,7.7,4.5,10.4c3.4,3.1,7.9,4.7,12.5,4.4
			h78.4c3.8,0.3,7.6-1,10.5-3.6c2.3-2.4,3.5-5.6,3.4-8.9C204.7,262.1,203.2,258.6,200.4,256.3z"/>
	</g>
</g>
<g>
	<g>
		<path class="st0" d="M333.8,222.9c-4.3-1.6-8.8-2.3-13.4-2.1h-4.6v-82.5c0-12.4-5.3-18.6-16-18.6c-3.2-0.1-6.3,1.2-8.6,3.4
			c-3.3,3.3-6.4,7-9.1,10.8l-56.5,75.6l-3.9,5.2c-1.1,1.4-2.1,2.9-3.1,4.4c-0.9,1.4-1.7,2.9-2.2,4.4c-0.5,1.3-0.7,2.7-0.7,4.1
			c-0.2,4.7,1.6,9.3,5,12.5c4.3,3.4,9.7,5,15.2,4.6h53.5v20.1c-0.3,4.3,1,8.5,3.6,11.8c5.3,5.3,13.9,5.4,19.2,0.1
			c0,0,0.1-0.1,0.1-0.1c2.6-3.4,3.9-7.6,3.6-11.8v-20h6.5c4.2,0.3,8.5-0.7,12.2-2.8c2.9-2.1,4.4-5.6,4.1-9.2
			C339.3,228.7,337.3,224.8,333.8,222.9z M289.4,220.6h-45.8l45.8-61.9V220.6z"/>
	</g>
</g>
</svg>
