<?xml version="1.0" encoding="iso-8859-1"?>
<!-- Generator: Adobe Illustrator 19.0.0, SVG Export Plug-In . SVG Version: 6.00 Build 0)  -->
<svg xmlns="http://www.w3.org/2000/svg" xmlns:xlink="http://www.w3.org/1999/xlink" version="1.1" id="Capa_1" x="0px" y="0px" viewBox="0 0 512.8 512.8" style="enable-background:new 0 0 512.8 512.8;" xml:space="preserve" width="512px" height="512px">
<g>
	<g>
		<g>
			<path d="M507.2,175.2l-16-8c-4-1.6-8.8,0-10.4,3.2c-1.6,3.2,0,8.8,3.2,10.4l11.2,5.6v286.4l-80-40V286.4c0-4.8-3.2-8-8-8     s-8,3.2-8,8v147.2l-88,40.8v-68c0-4.8-3.2-8-8-8s-8,3.2-8,8v67.2l-80-39.2v-44c0-4.8-3.2-8-8-8c-4.8,0-8,3.2-8,8V432l-88,41.6     V214.4c0-4.8-3.2-8-8-8c-4.8,0-8,3.2-8,8v259.2l-80-40V147.2l84.8,42.4c2.4,0.8,4.8,0.8,7.2,0l16-8c4-1.6,5.6-6.4,3.2-10.4     c-2.4-4-6.4-5.6-10.4-3.2l-12,5.6l-92.8-46.4c-2.4-1.6-5.6-0.8-8,0C1.6,128.8,0,132,0,134.4v304c0,3.2,1.6,5.6,4.8,7.2l96,48     c0.8,0.8,1.6,0.8,3.2,0.8c0.8,0,2.4,0,3.2-0.8l98.4-46.4l94.4,46.4c0.8,0,1.6,0.8,2.4,0.8c0,0,0,0,0.8,0s2.4,0,3.2-0.8L408,447.2     l92.8,46.4c0.8,0.8,2.4,0.8,4,0.8c1.6,0,3.2,0,4-0.8c2.4-1.6,4-4,4-7.2v-304C512,179.2,510.4,176.8,507.2,175.2z" fill="#6EBF00"/>
			<path d="M224.8,143.2c-1.6,4,0,8.8,3.2,10.4l68,33.6v27.2c0,4.8,3.2,8,8,8s8-3.2,8-8v-27.2l11.2-5.6c4-1.6,5.6-6.4,3.2-10.4     c-1.6-4-6.4-5.6-10.4-3.2l-12,5.6l-68.8-34.4C231.2,137.6,226.4,139.2,224.8,143.2z" fill="#6EBF00"/>
			<path d="M402.4,268.8c2.4,0,4.8-0.8,6.4-3.2c6.4-8,62.4-79.2,62.4-114.4c0-38.4-31.2-68.8-68.8-68.8c-37.6,0-68.8,31.2-68.8,68.8     c0,35.2,56,106.4,62.4,114.4C397.6,267.2,400,268.8,402.4,268.8z M402.4,98.4c28.8,0,52.8,24,52.8,52.8c0,22.4-33.6,72-52.8,96.8     c-19.2-24.8-52.8-74.4-52.8-96.8C349.6,121.6,372.8,98.4,402.4,98.4z" fill="#6EBF00"/>
			<path d="M422.4,151.2c0-11.2-8.8-20-20-20s-20,8.8-20,20s8.8,20,20,20S422.4,162.4,422.4,151.2z M398.4,151.2c0-2.4,1.6-4,4-4     c2.4,0,4,1.6,4,4c0,2.4-1.6,4-4,4C400,155.2,398.4,153.6,398.4,151.2z" fill="#6EBF00"/>
			<path d="M162.4,204.8c2.4,0,4.8-0.8,6.4-3.2c6.4-8,62.4-79.2,62.4-114.4c0-38.4-31.2-68.8-68.8-68.8c-38.4,0-68.8,31.2-68.8,68.8     c0,35.2,56,106.4,62.4,114.4C157.6,203.2,160,204.8,162.4,204.8z M162.4,34.4c28.8,0,52.8,24,52.8,52.8c0,22.4-33.6,72-52.8,96.8     c-19.2-24.8-52.8-74.4-52.8-96.8C109.6,58.4,133.6,34.4,162.4,34.4z" fill="#6EBF00"/>
			<path d="M182.4,87.2c0-11.2-8.8-20-20-20s-20,8.8-20,20s8.8,20,20,20C173.6,107.2,182.4,98.4,182.4,87.2z M158.4,87.2     c0-2.4,1.6-4,4-4c2.4,0,4,1.6,4,4c0,2.4-1.6,4-4,4C160,91.2,158.4,89.6,158.4,87.2z" fill="#6EBF00"/>
			<path d="M252,401.6c1.6,1.6,4,3.2,6.4,3.2c2.4,0,4.8-0.8,6.4-3.2c6.4-8,62.4-79.2,62.4-114.4c0-38.4-31.2-68.8-68.8-68.8     c-37.6,0-68.8,31.2-68.8,68.8C189.6,322.4,245.6,393.6,252,401.6z M258.4,234.4c28.8,0,52.8,24,52.8,52.8     c0,22.4-33.6,72-52.8,96.8c-19.2-24.8-52.8-74.4-52.8-96.8C205.6,257.6,228.8,234.4,258.4,234.4z" fill="#6EBF00"/>
			<path d="M258.4,307.2c11.2,0,20-8.8,20-20s-8.8-20-20-20s-20,8.8-20,20S247.2,307.2,258.4,307.2z M258.4,283.2c2.4,0,4,1.6,4,4     c0,2.4-1.6,4-4,4c-2.4,0-4-1.6-4-4C254.4,284.8,256,283.2,258.4,283.2z" fill="#6EBF00"/>
			<polygon points="44.8,76.8 56,65.6 67.2,76.8 78.4,65.6 67.2,54.4 78.4,43.2 67.2,32 56,43.2 44.8,32 33.6,43.2 44.8,54.4      33.6,65.6    " fill="#6EBF00"/>
			<polygon points="452.8,76.8 464,65.6 475.2,76.8 486.4,65.6 475.2,54.4 486.4,43.2 475.2,32 464,43.2 452.8,32 441.6,43.2      452.8,54.4 441.6,65.6    " fill="#6EBF00"/>
			<path d="M216,214.4v-32c0-4.8-3.2-8-8-8s-8,3.2-8,8v32c0,4.8,3.2,8,8,8S216,219.2,216,214.4z" fill="#6EBF00"/>
			<path d="M296,70.4h24c4.8,0,8-3.2,8-8s-3.2-8-8-8h-24c-4.8,0-8,3.2-8,8S291.2,70.4,296,70.4z" fill="#6EBF00"/>
			<path d="M352,46.4h24c4.8,0,8-3.2,8-8s-3.2-8-8-8h-24c-4.8,0-8,3.2-8,8S347.2,46.4,352,46.4z" fill="#6EBF00"/>
		</g>
	</g>
</g>
<g>
</g>
<g>
</g>
<g>
</g>
<g>
</g>
<g>
</g>
<g>
</g>
<g>
</g>
<g>
</g>
<g>
</g>
<g>
</g>
<g>
</g>
<g>
</g>
<g>
</g>
<g>
</g>
<g>
</g>
</svg>
