<?xml version="1.0" encoding="iso-8859-1"?>
<!-- Generator: Adobe Illustrator 19.0.0, SVG Export Plug-In . SVG Version: 6.00 Build 0)  -->
<svg xmlns="http://www.w3.org/2000/svg" xmlns:xlink="http://www.w3.org/1999/xlink" version="1.1" id="Capa_1" x="0px" y="0px" viewBox="0 0 411.998 411.998" style="enable-background:new 0 0 411.998 411.998;" xml:space="preserve" width="512px" height="512px">
<g>
	<g>
		<path d="M408.64,274.199c-10.16-36-27.44-44.24-41.28-51.6c-13.84-7.12-24.88-12.96-29.68-46h17.52c4.418,0,8-3.582,8-8v-76.4    c-0.8-28.88-38.32-58-42.64-61.28c-3.535-2.673-8.567-1.975-11.24,1.56s-1.975,8.567,1.56,11.24    c9.92,7.52,35.76,30.88,36.24,48.72v1.52l-49.44,26c-2.659,1.378-4.326,4.125-4.32,7.12v41.44c0,4.418,3.582,8,8,8h20.08    c5.76,43.2,22.32,51.92,38.4,60.24c12.88,6.64,25.04,12.96,33.28,42.08c7.44,26.16-1.44,40.72-10.16,48    c-13.695,11.214-32.45,13.981-48.8,7.2c-12.925-5.327-21.272-18.022-21.04-32c-1.92-55.04-19.92-70.96-30.8-75.6V65.719    c0-41.84-29.28-56.72-56.72-56.72H95.68c-27.44,0-56.72,14.88-56.72,56.72v321.28H8c-4.418,0-8,3.582-8,8s3.582,8,8,8h305.44    c4.418,0,8-3.582,8-8s-3.582-8-8-8h-30.96v-140.08c6.16,7.04,13.68,22.4,14.8,56c0.051,20.075,12.122,38.167,30.64,45.92    c7.763,3.31,16.121,4.998,24.56,4.96c15.034,0.135,29.62-5.115,41.12-14.8C403.6,330.279,418.8,310.199,408.64,274.199z     M309.44,160.599v-28.64l37.68-19.84v48.48H309.44z M266.48,386.999H54.96V65.719c0-35.44,25.52-40.72,40.72-40.72h130.08    c15.2,0,40.72,5.28,40.72,40.72V386.999z" fill="#6EBF00"/>
	</g>
</g>
<g>
	<g>
		<path d="M222,52.439H99.44c-9.658,0.044-17.476,7.862-17.52,17.52v67.04c0.044,9.658,7.862,17.476,17.52,17.52H222    c9.658-0.044,17.476-7.862,17.52-17.52v-67.04C239.476,60.301,231.658,52.483,222,52.439z M223.52,136.999    c0,0.839-0.681,1.52-1.52,1.52H99.44c-0.839,0-1.52-0.681-1.52-1.52c0,0,0,0,0,0v-67.04c0-0.839,0.681-1.52,1.52-1.52H222    c0.839,0,1.52,0.681,1.52,1.52V136.999z" fill="#6EBF00"/>
	</g>
</g>
<g>
</g>
<g>
</g>
<g>
</g>
<g>
</g>
<g>
</g>
<g>
</g>
<g>
</g>
<g>
</g>
<g>
</g>
<g>
</g>
<g>
</g>
<g>
</g>
<g>
</g>
<g>
</g>
<g>
</g>
</svg>
