<?xml version="1.0" encoding="iso-8859-1"?>
<!-- Generator: Adobe Illustrator 19.0.0, SVG Export Plug-In . SVG Version: 6.00 Build 0)  -->
<svg version="1.1" id="Capa_1" xmlns="http://www.w3.org/2000/svg" xmlns:xlink="http://www.w3.org/1999/xlink" x="0px" y="0px"
	 viewBox="0 0 512 512" style="enable-background:new 0 0 512 512;" xml:space="preserve">
<rect x="304" y="345.18" style="fill:#C35A1E;" width="32" height="112"/>
<polygon style="fill:#AADC96;" points="384,153.178 448,153.178 320,25.178 192,153.178 256,153.178 192,217.178 256,217.178 
	192,281.178 256,281.178 192,345.178 448,345.178 384,281.178 448,281.178 384,217.178 448,217.178 "/>
<g>
	<polygon style="fill:#5AAA69;" points="336,281.178 400,345.178 448,345.178 384,281.178 	"/>
	<polygon style="fill:#5AAA69;" points="400,153.178 448,153.178 320,25.178 296,49.178 	"/>
	<polygon style="fill:#5AAA69;" points="336,217.178 400,281.178 448,281.178 384,217.178 	"/>
	<polygon style="fill:#5AAA69;" points="336,153.178 400,217.178 448,217.178 384,153.178 	"/>
</g>
<rect x="176" y="377.18" style="fill:#C35A1E;" width="32" height="112"/>
<polygon style="fill:#AADC96;" points="256,185.178 320,185.178 192,57.178 64,185.178 128,185.178 64,249.178 128,249.178 
	64,313.178 128,313.178 64,377.178 320,377.178 256,313.178 320,313.178 256,249.178 320,249.178 "/>
<g>
	<polygon style="fill:#5AAA69;" points="176,185.178 128,185.178 64,249.178 112,249.178 	"/>
	<polygon style="fill:#5AAA69;" points="216,81.178 192,57.178 64,185.178 112,185.178 	"/>
	<polygon style="fill:#5AAA69;" points="128,313.178 64,377.178 112,377.178 176,313.178 	"/>
	<polygon style="fill:#5AAA69;" points="176,249.178 128,249.178 64,313.178 112,313.178 	"/>
</g>
<g>
	<rect x="160" y="145.68" style="fill:#FFFFFF;" width="16" height="15"/>
	<rect x="208" y="273.68" style="fill:#FFFFFF;" width="16" height="15"/>
	<rect x="352" y="177.68" style="fill:#FFFFFF;" width="16" height="15"/>
</g>
<path d="M296,409.178v41h-56v15h272v-15H343v-97h123.106l-64-64h64l-64-64h64l-64-64h64L320,14.822L250.697,84l10.606,10.544
	L320,36.066l109.894,110.112H291.106L192,47.072L45.894,193.178h64l-64,64h64l-64,64h64l-64,64H168v65h-40v15h40v17H0v15h384v-15
	H215v-97h113v65h-17v-41L296,409.178L296,409.178z M429.894,338.178H291.106l-17-17h64l-32-32h74.787L429.894,338.178z
	 M380.894,161.178l49,49H320v15h60.894l49,49H291.106l-17-17h64l-64-64h64l-32-32L380.894,161.178L380.894,161.178z M200,482.178
	h-17v-97h17V482.178z M82.106,370.178l49-49H208v-15H82.106l49-49H224v-15H82.106l64-64h-64L192,68.285l109.894,109.894H160v15
	h92.894l49,49h-64l64,64h-64l64,64H82.106V370.178z M306.106,353.178H328v21.894L306.106,353.178z"/>
<g>
</g>
<g>
</g>
<g>
</g>
<g>
</g>
<g>
</g>
<g>
</g>
<g>
</g>
<g>
</g>
<g>
</g>
<g>
</g>
<g>
</g>
<g>
</g>
<g>
</g>
<g>
</g>
<g>
</g>
</svg>
