<?xml version="1.0" encoding="iso-8859-1"?>
<!-- Generator: Adobe Illustrator 19.0.0, SVG Export Plug-In . SVG Version: 6.00 Build 0)  -->
<svg version="1.1" id="Capa_1" xmlns="http://www.w3.org/2000/svg" xmlns:xlink="http://www.w3.org/1999/xlink" x="0px" y="0px"
	 viewBox="0 0 512 512" style="enable-background:new 0 0 512 512;" xml:space="preserve">
<path style="fill:#F58C46;" d="M384.5,336h48v-64c0-8.837-7.163-16-16-16h-32V336z"/>
<path style="fill:#C35A1E;" d="M384.5,288h48v-16c0-8.837-7.163-16-16-16h-32V288z"/>
<path style="fill:#F58C46;" d="M80.5,336h48v-80h-32c-8.837,0-16,7.163-16,16V336z"/>
<path style="fill:#C35A1E;" d="M80.5,288h48v-32h-32c-8.837,0-16,7.163-16,16V288z"/>
<polyline style="fill:#F58C46;" points="384.5,144 384.5,368 128.5,368 128.5,144 "/>
<g>
	<polyline style="fill:#C35A1E;" points="384.5,352 384.5,368 128.5,368 128.5,352 	"/>
	<polyline style="fill:#C35A1E;" points="384.5,144 384.5,160 128.5,160 128.5,144 	"/>
</g>
<rect x="400.5" y="32" style="fill:#FFE05F;" width="32" height="80"/>
<rect x="400.5" y="80" style="fill:#FFBE14;" width="32" height="32"/>
<rect x="80.5" y="32" style="fill:#FFE05F;" width="32" height="80"/>
<rect x="80.5" y="80" style="fill:#FFBE14;" width="32" height="32"/>
<path style="fill:#F58C46;" d="M368.5,144h-224c-17.673,0-32-14.327-32-32V7.5h288V112C400.5,129.673,386.173,144,368.5,144z"/>
<path style="fill:#C35A1E;" d="M368.5,112h-224c-17.673,0-32-14.327-32-32v32c0,17.673,14.327,32,32,32h224
	c17.673,0,32-14.327,32-32V80C400.5,97.673,386.173,112,368.5,112z"/>
<rect x="176.5" y="7.5" style="fill:#BEC8D7;" width="32" height="264.5"/>
<rect x="176.5" y="224" style="fill:#737887;" width="32" height="16"/>
<rect x="304.5" y="7.5" style="fill:#BEC8D7;" width="32" height="264.5"/>
<rect x="304.5" y="224" style="fill:#737887;" width="32" height="16"/>
<g>
	<rect x="168.5" y="176" style="fill:#FFE05F;" width="48" height="48"/>
	<rect x="296.5" y="176" style="fill:#FFE05F;" width="48" height="48"/>
</g>
<path style="fill:#AADC96;" d="M400.5,464h-288c-17.673,0-32-14.327-32-32v-32c0-17.673,14.327-32,32-32h288
	c17.673,0,32,14.327,32,32v32C432.5,449.673,418.173,464,400.5,464z"/>
<path style="fill:#5AAA69;" d="M400.5,432h-288c-17.673,0-32-14.327-32-32v32c0,17.673,14.327,32,32,32h288
	c17.673,0,32-14.327,32-32v-32C432.5,417.673,418.173,432,400.5,432z"/>
<g>
	<path style="fill:#BEC8D7;" d="M208.5,512h-32V352c0-8.836,7.163-16,16-16l0,0c8.837,0,16,7.164,16,16V512z"/>
	<path style="fill:#BEC8D7;" d="M336.5,512h-32V368c0-8.837,7.163-16,16-16l0,0c8.837,0,16,7.163,16,16V512z"/>
</g>
<g>
	<rect x="168.5" y="396" style="fill:#FFE05F;" width="48" height="40"/>
	<rect x="296.5" y="396" style="fill:#FFE05F;" width="48" height="40"/>
</g>
<g>
	<rect x="120.5" y="408.5" style="fill:#FFFFFF;" width="16" height="15"/>
	<rect x="376.5" y="408.5" style="fill:#FFFFFF;" width="16" height="15"/>
	<rect x="248.5" y="200.5" style="fill:#FFFFFF;" width="16" height="15"/>
</g>
<path d="M368.5,152c19.216,0,35.262-14,38.777-32H439.5V25h-32V0H344h-47H104.5v25h-32v95h33.223c1.937,10,7.678,18.217,15.661,24
	H120.5v105h-24c-12.958,0-24,10.042-24,23v72h48v17h-8c-21.78,0-40,17.22-40,39v32c0,21.78,18.22,40,40,40h56v24h15v-52h17v68h15
	v-40h81v40h15v-68h17v68h15v-40h57c21.78,0,39-18.22,39-40v-32c0-21.78-17.22-39-39-39h-9v-17h48v-72c0-12.958-10.042-23-23-23h-25
	v-73h-15v185h-33.734c-3.138-10-11.93-16-22.266-16s-19.128,6-22.266,16H215.5v-9c0-12.958-10.542-23.5-23.5-23.5
	s-23.5,10.542-23.5,23.5v9h-33V150.569c3,0.604,6.082,1.431,9,1.431h24v17h-8v63h8v48h47v-48h8v-63h-8v-17h81v17h-8v63h8v48h47v-48
	h8v-63h-8v-17H368.5z M424.5,40v65h-17V40H424.5z M87.5,40h17v65h-17V40z M391.5,329v-33h33v33H391.5z M416.5,264
	c4.687,0,8,3.313,8,8v9h-33v-17H416.5z M208.5,404v25h-33v-25H208.5z M296.5,457h-33v-81h33v13h-8v55h8V457z M336.5,404v25h-33v-25
	H336.5z M424.5,400v32c0,13.509-10.491,25-24,25h-57v-13h8v-55h-8v-13h57C414.009,376,424.5,386.491,424.5,400z M320,359.5
	c4.687,0,8.5,3.813,8.5,8.5v21h-17v-21C311.5,363.313,315.313,359.5,320,359.5z M248.5,376v81h-33v-13h8v-55h-8v-13H248.5z
	 M192,343.5c4.687,0,8.5,3.813,8.5,8.5v37h-17v-37C183.5,347.313,187.313,343.5,192,343.5z M168.5,389h-8v55h8v13h-56
	c-13.509,0-25-11.491-25-25v-32c0-13.509,11.491-24,25-24h56V389z M96.5,264h24v17h-33v-9C87.5,267.313,91.813,264,96.5,264z
	 M87.5,329v-33h33v33H87.5z M392.5,15v97c0,13.509-10.491,25-24,25h-25V15H392.5z M144.5,137c-13.509,0-25-11.491-25-25V15h49v122
	H144.5z M208.5,184v33h-33v-33H208.5z M200.5,265h-17v-33h17V265z M183.5,169V15h17v154H183.5z M215.5,137V15h81v122H215.5z
	 M336.5,184v33h-33v-33H336.5z M328.5,265h-17v-33h17V265z M311.5,169V15h17v154H311.5z"/>
<g>
</g>
<g>
</g>
<g>
</g>
<g>
</g>
<g>
</g>
<g>
</g>
<g>
</g>
<g>
</g>
<g>
</g>
<g>
</g>
<g>
</g>
<g>
</g>
<g>
</g>
<g>
</g>
<g>
</g>
</svg>
