<?xml version="1.0" encoding="iso-8859-1"?>
<!-- Generator: Adobe Illustrator 19.0.0, SVG Export Plug-In . SVG Version: 6.00 Build 0)  -->
<svg version="1.1" id="Capa_1" xmlns="http://www.w3.org/2000/svg" xmlns:xlink="http://www.w3.org/1999/xlink" x="0px" y="0px"
	 viewBox="0 0 512 512" style="enable-background:new 0 0 512 512;" xml:space="preserve">
<rect x="192" y="79.5" style="fill:#555A6E;" width="128" height="32"/>
<rect x="32" y="207.5" style="fill:#FF6955;" width="448" height="224"/>
<rect x="32" y="207.5" style="fill:#F03C1E;" width="32" height="224"/>
<polygon style="fill:#FFFFFF;" points="272,327.002 272,375 240,375 240,327.002 192,327 192,295 240,295 240,247 272,247 272,295 
	320,295 320,327 "/>
<rect x="7.5" y="159.5" style="fill:#FF6955;" width="497" height="48"/>
<rect x="7.5" y="159.5" style="fill:#F03C1E;" width="56.5" height="48"/>
<rect x="96" y="191.5" style="fill:#555A6E;" width="32" height="80"/>
<rect x="96" y="239.5" style="fill:#737887;" width="32" height="32"/>
<g>
	<rect x="40.5" y="175.5" style="fill:#FFFFFF;" width="15" height="16"/>
	<rect x="456.5" y="175.5" style="fill:#FFFFFF;" width="15" height="16"/>
</g>
<rect x="384" y="191.5" style="fill:#555A6E;" width="32" height="80"/>
<rect x="384" y="239.5" style="fill:#737887;" width="32" height="32"/>
<path d="M232,239.5v48h-48v47l48,0.002V382.5h47v-47.998l48-0.002v-47h-48v-48H232z M312,302.5v17l-48,0.002V367.5h-17v-47.998
	l-48-0.002v-17h48v-48h17v48H312z"/>
<path d="M512,152.5H199v-33h113v24h15v-71H184v80H0v63h24v40h15v-40h49v64h47v-64h241v64h47v-64h49v209H39v-137H24v152h463v-224h25
	V152.5z M312,87.5v17H199v-17H312z M120,232.5h-17v-33h17V232.5z M103,264.5v-17h17v17H103z M408,232.5h-17v-33h17V232.5z
	 M391,264.5v-17h17v17H391z M497,200.5h-74v-16h-47v16H135v-16H88v16H15v-33h482V200.5z"/>
<rect x="144" y="399.5" width="240" height="15"/>
<g>
</g>
<g>
</g>
<g>
</g>
<g>
</g>
<g>
</g>
<g>
</g>
<g>
</g>
<g>
</g>
<g>
</g>
<g>
</g>
<g>
</g>
<g>
</g>
<g>
</g>
<g>
</g>
<g>
</g>
</svg>
